<?xml version="1.0" encoding="utf-8"?>
<COLLADA xmlns="http://www.collada.org/2005/11/COLLADASchema" version="1.4.1" xmlns:xsi="http://www.w3.org/2001/XMLSchema-instance">
  <asset>
    <contributor>
      <author>Blender User</author>
      <authoring_tool>Blender 4.5.0 commit date:2025-07-14, commit time:17:45, hash:8cb6b388974a</authoring_tool>
    </contributor>
    <created>2025-07-19T09:19:43</created>
    <modified>2025-07-19T09:19:43</modified>
    <unit name="meter" meter="1"/>
    <up_axis>Z_UP</up_axis>
  </asset>
  <library_cameras>
    <camera id="Camera-camera" name="Camera">
      <optics>
        <technique_common>
          <perspective>
            <xfov sid="xfov">39.59775</xfov>
            <aspect_ratio>1.777778</aspect_ratio>
            <znear sid="znear">0.1</znear>
            <zfar sid="zfar">100</zfar>
          </perspective>
        </technique_common>
      </optics>
      <extra>
        <technique profile="blender">
          <shiftx sid="shiftx" type="float">0</shiftx>
          <shifty sid="shifty" type="float">0</shifty>
          <dof_distance sid="dof_distance" type="float">10</dof_distance>
        </technique>
      </extra>
    </camera>
  </library_cameras>
  <library_lights>
    <light id="Light-light" name="Light">
      <technique_common>
        <point>
          <color sid="color">1000 1000 1000</color>
          <constant_attenuation>1</constant_attenuation>
          <linear_attenuation>0</linear_attenuation>
          <quadratic_attenuation>0</quadratic_attenuation>
        </point>
      </technique_common>
      <extra>
        <technique profile="blender">
          <type sid="type" type="int">0</type>
          <flag sid="flag" type="int">0</flag>
          <mode sid="mode" type="int">2097153</mode>
          <red sid="red" type="float">1</red>
          <green sid="green" type="float">1</green>
          <blue sid="blue" type="float">1</blue>
          <energy sid="blender_energy" type="float">1000</energy>
          <spotsize sid="spotsize" type="float">75</spotsize>
          <spotblend sid="spotblend" type="float">0.15</spotblend>
          <clipsta sid="clipsta" type="float">0.04999995</clipsta>
          <clipend sid="clipend" type="float">40</clipend>
          <radius sid="radius" type="float">0.1</radius>
          <area_shape sid="area_shape" type="int">1</area_shape>
          <area_size sid="area_size" type="float">0.1</area_size>
          <area_sizey sid="area_sizey" type="float">0.1</area_sizey>
          <area_sizez sid="area_sizez" type="float">1</area_sizez>
        </technique>
      </extra>
    </light>
  </library_lights>
  <library_effects>
    <effect id="Material_001-effect">
      <profile_COMMON>
        <technique sid="common">
          <lambert>
            <emission>
              <color sid="emission">0 0 0 1</color>
            </emission>
            <diffuse>
              <color sid="diffuse">0.8 0.8 0.8 1</color>
            </diffuse>
            <index_of_refraction>
              <float sid="ior">1.5</float>
            </index_of_refraction>
          </lambert>
        </technique>
      </profile_COMMON>
    </effect>
    <effect id="Material_002-effect">
      <profile_COMMON>
        <technique sid="common">
          <lambert>
            <emission>
              <color sid="emission">0 0 0 1</color>
            </emission>
            <diffuse>
              <color sid="diffuse">0.1650461 0.1650461 0.1650461 1</color>
            </diffuse>
            <index_of_refraction>
              <float sid="ior">1.5</float>
            </index_of_refraction>
          </lambert>
        </technique>
      </profile_COMMON>
    </effect>
  </library_effects>
  <library_images/>
  <library_materials>
    <material id="Material_001-material" name="Material.001">
      <instance_effect url="#Material_001-effect"/>
    </material>
    <material id="Material_002-material" name="Material.002">
      <instance_effect url="#Material_002-effect"/>
    </material>
  </library_materials>
  <library_geometries>
    <geometry id="Labirinth_14x12m-mesh" name="Labirinth_14x12m">
      <mesh>
        <source id="Labirinth_14x12m-mesh-positions">
          <float_array id="Labirinth_14x12m-mesh-positions-array" count="1140">8297.847 -1.038981 13895.51 8297.847 -1.038981 11995.51 8297.847 298.961 13895.51 8297.847 298.961 11995.51 16497.85 -1.038981 13895.51 16497.85 298.961 13895.51 16497.85 -1.038981 -1804.486 16497.85 298.961 -1804.486 1097.847 -1.038981 -1804.486 1097.847 298.961 -1804.486 1097.847 -1.038981 95.51367 1097.847 298.961 95.51367 -902.1535 -1.038981 -1804.486 997.8466 -1.038981 -1804.486 -902.1535 298.961 -1804.486 997.8466 298.961 -1804.486 -902.1535 -1.038981 13895.51 -902.1535 298.961 13895.51 8197.847 -1.038981 13895.51 8197.847 298.961 13895.51 14597.85 -1.038981 11995.51 14597.85 298.961 11995.51 6097.847 -1.038981 95.51367 7097.847 -1.038981 95.51367 14597.85 -1.038981 95.51367 6097.847 -1.038981 195.5137 7097.847 -1.038981 1195.514 2097.847 -1.038981 1195.514 1097.847 -1.038981 195.5137 2097.847 -1.038981 1295.514 1097.847 -1.038981 2695.514 3097.847 -1.038981 2695.514 3097.847 -1.038981 2795.514 4097.847 -1.038981 3795.514 7097.847 -1.038981 1295.514 3097.847 -1.038981 4795.514 2197.847 -1.038981 2795.514 2197.847 -1.038981 5795.514 2097.847 -1.038981 5795.514 1097.847 -1.038981 6695.514 4097.847 -1.038981 6695.514 3097.847 -1.038981 5795.514 3197.847 -1.038981 5795.514 4097.847 -1.038981 4895.514 3197.847 -1.038981 4895.514 2097.847 -1.038981 2795.514 1097.847 -1.038981 2795.514 4097.847 -1.038981 4795.514 6097.847 -1.038981 3795.514 7097.847 -1.038981 2895.514 9197.847 -1.038981 4695.514 8197.847 -1.038981 2895.514 9197.847 -1.038981 2795.514 8197.847 -1.038981 2795.514 8197.847 -1.038981 1295.514 7197.847 -1.038981 2795.514 7197.847 -1.038981 195.5137 8197.847 -1.038981 1195.514 9197.847 -1.038981 195.5137 9197.847 -1.038981 1195.514 6097.847 -1.038981 4695.514 9197.847 -1.038981 4795.514 10297.85 -1.038981 5595.514 9297.847 -1.038981 2795.514 8197.847 -1.038981 5595.514 7197.847 -1.038981 4795.514 8197.847 -1.038981 5695.514 8197.847 -1.038981 6695.514 9197.847 -1.038981 6695.514 7197.847 -1.038981 8795.514 8197.847 -1.038981 9795.514 7197.847 -1.038981 9795.514 7197.847 -1.038981 10795.51 7097.847 -1.038981 9795.514 6097.847 -1.038981 8795.514 6097.847 -1.038981 9895.514 5097.847 -1.038981 9895.514 6097.847 -1.038981 10795.51 7097.847 -1.038981 10795.51 5097.847 -1.038981 9795.514 4097.847 -1.038981 10795.51 5097.847 -1.038981 10795.51 6097.847 -1.038981 10895.51 5097.847 -1.038981 10895.51 7097.847 -1.038981 11895.51 3197.847 -1.038981 11895.51 3997.847 -1.038981 10895.51 3197.847 -1.038981 9795.514 3997.847 -1.038981 8795.514 3097.847 -1.038981 9795.514 2097.847 -1.038981 8795.514 2097.847 -1.038981 10995.51 5997.847 -1.038981 9795.514 5097.847 -1.038981 8795.514 4097.847 -1.038981 8795.514 5997.847 -1.038981 7795.514 5097.847 -1.038981 8695.514 5197.847 -1.038981 7695.514 3097.847 -1.038981 7695.514 5197.847 -1.038981 6795.514 6097.847 -1.038981 7795.514 7097.847 -1.038981 6795.514 7097.847 -1.038981 8695.514 6097.847 -1.038981 8695.514 3097.847 -1.038981 7595.514 2097.847 -1.038981 6795.514 2097.847 -1.038981 8695.514 4197.847 -1.038981 6795.514 5097.847 -1.038981 7595.514 5097.847 -1.038981 5795.514 5997.847 -1.038981 5795.514 5097.847 -1.038981 4795.514 4197.847 -1.038981 3895.514 5997.847 -1.038981 5895.514 7097.847 -1.038981 6695.514 7097.847 -1.038981 4795.514 5197.847 -1.038981 5895.514 5197.847 -1.038981 6695.514 5097.847 -1.038981 4695.514 5997.847 -1.038981 3895.514 5997.847 -1.038981 4695.514 1997.847 -1.038981 10995.51 1097.847 -1.038981 11895.51 3097.847 -1.038981 11895.51 1997.847 -1.038981 6795.514 1097.847 -1.038981 6795.514 7097.847 -1.038981 10895.51 10197.85 -1.038981 10795.51 10197.85 -1.038981 9795.514 9197.847 -1.038981 5695.514 10297.85 -1.038981 1195.514 9297.847 -1.038981 195.5137 10397.85 -1.038981 1195.514 11397.85 -1.038981 1195.514 11397.85 -1.038981 3695.514 10397.85 -1.038981 4695.514 12297.85 -1.038981 4695.514 12297.85 -1.038981 3695.514 11497.85 -1.038981 1195.514 14497.85 -1.038981 195.5137 12497.85 -1.038981 1195.514 14497.85 -1.038981 1195.514 12497.85 -1.038981 1295.514 11497.85 -1.038981 3595.514 12397.85 -1.038981 3595.514 14497.85 -1.038981 1295.514 12397.85 -1.038981 4795.514 14497.85 -1.038981 7695.514 12397.85 -1.038981 6695.514 12397.85 -1.038981 6795.514 10397.85 -1.038981 4795.514 11397.85 -1.038981 5695.514 11497.85 -1.038981 5695.514 11497.85 -1.038981 6695.514 10397.85 -1.038981 5695.514 11397.85 -1.038981 6695.514 10297.85 -1.038981 6695.514 9297.847 -1.038981 5695.514 9297.847 -1.038981 6795.514 8297.847 -1.038981 6795.514 9197.847 -1.038981 7695.514 10297.85 -1.038981 7695.514 8297.847 -1.038981 9695.514 9197.847 -1.038981 8795.514 10297.85 -1.038981 9695.514 11397.85 -1.038981 8795.514 10297.85 -1.038981 10895.51 11397.85 -1.038981 11895.51 8197.847 -1.038981 11895.51 7197.847 -1.038981 10895.51 7197.847 -1.038981 11995.51 997.8466 -1.038981 11995.51 10397.85 -1.038981 6795.514 11397.85 -1.038981 7795.514 11497.85 -1.038981 7795.514 12497.85 -1.038981 7695.514 12497.85 -1.038981 7795.514 12497.85 -1.038981 8695.514 14497.85 -1.038981 7795.514 12497.85 -1.038981 8795.514 12497.85 -1.038981 9695.514 11497.85 -1.038981 8795.514 11497.85 -1.038981 9695.514 10397.85 -1.038981 7795.514 11397.85 -1.038981 8695.514 9297.847 -1.038981 8695.514 9297.847 -1.038981 7795.514 11497.85 -1.038981 8695.514 14497.85 -1.038981 10795.51 12497.85 -1.038981 9795.514 12497.85 -1.038981 10795.51 11497.85 -1.038981 9795.514 11497.85 -1.038981 11895.51 12497.85 -1.038981 10895.51 14497.85 -1.038981 11895.51 14497.85 -1.038981 10895.51 9197.847 -1.038981 1295.514 -1002.153 -11.03898 13995.51 16597.85 -11.03898 13995.51 -1002.153 298.961 13995.51 16597.85 298.961 13995.51 16597.85 -11.03898 -1904.486 16597.85 298.961 -1904.486 -1002.153 -11.03898 -1904.486 -1002.153 298.961 -1904.486 8197.847 298.961 11895.51 11397.85 298.961 11895.51 11397.85 298.961 8795.514 9197.847 298.961 8795.514 9197.847 298.961 7695.514 10297.85 298.961 7695.514 10297.85 298.961 6695.514 11397.85 298.961 6695.514 11397.85 298.961 5695.514 11497.85 298.961 5695.514 11497.85 298.961 6695.514 12397.85 298.961 6695.514 12397.85 298.961 6795.514 10397.85 298.961 6795.514 10397.85 298.961 7795.514 9297.847 298.961 7795.514 9297.847 298.961 8695.514 11397.85 298.961 8695.514 11397.85 298.961 7795.514 11497.85 298.961 7795.514 11497.85 298.961 8695.514 12497.85 298.961 8695.514 12497.85 298.961 8795.514 11497.85 298.961 8795.514 11497.85 298.961 9695.514 12497.85 298.961 9695.514 12497.85 298.961 9795.514 11497.85 298.961 9795.514 11497.85 298.961 11895.51 14497.85 298.961 11895.51 14497.85 298.961 10895.51 12497.85 298.961 10895.51 12497.85 298.961 10795.51 14497.85 298.961 10795.51 14497.85 298.961 7795.514 12497.85 298.961 7795.514 12497.85 298.961 7695.514 14497.85 298.961 7695.514 14497.85 298.961 1295.514 12497.85 298.961 1295.514 12497.85 298.961 1195.514 14497.85 298.961 1195.514 14497.85 298.961 195.5137 9297.847 298.961 195.5137 9297.847 298.961 2795.514 9197.847 298.961 2795.514 9197.847 298.961 1295.514 8197.847 298.961 1295.514 8197.847 298.961 1195.514 9197.847 298.961 1195.514 9197.847 298.961 195.5137 7197.847 298.961 195.5137 7197.847 298.961 2795.514 8197.847 298.961 2795.514 8197.847 298.961 2895.514 7097.847 298.961 2895.514 7097.847 298.961 1295.514 2097.847 298.961 1295.514 2097.847 298.961 1195.514 7097.847 298.961 1195.514 7097.847 298.961 95.51367 14597.85 298.961 95.51367 997.8466 298.961 11995.51 6097.847 298.961 95.51367 6097.847 298.961 195.5137 1097.847 298.961 195.5137 1097.847 298.961 2695.514 3097.847 298.961 2695.514 3097.847 298.961 2795.514 2197.847 298.961 2795.514 2197.847 298.961 5795.514 2097.847 298.961 5795.514 2097.847 298.961 2795.514 1097.847 298.961 2795.514 1097.847 298.961 6695.514 4097.847 298.961 6695.514 4097.847 298.961 4895.514 3197.847 298.961 4895.514 3197.847 298.961 5795.514 3097.847 298.961 5795.514 3097.847 298.961 4795.514 4097.847 298.961 4795.514 4097.847 298.961 3795.514 6097.847 298.961 3795.514 6097.847 298.961 4695.514 9197.847 298.961 4695.514 9197.847 298.961 4795.514 7197.847 298.961 4795.514 7197.847 298.961 8795.514 6097.847 298.961 8795.514 6097.847 298.961 9895.514 5097.847 298.961 9895.514 5097.847 298.961 9795.514 5997.847 298.961 9795.514 5997.847 298.961 7795.514 6097.847 298.961 7795.514 6097.847 298.961 8695.514 7097.847 298.961 8695.514 7097.847 298.961 6795.514 5197.847 298.961 6795.514 5197.847 298.961 7695.514 3097.847 298.961 7695.514 3097.847 298.961 7595.514 5097.847 298.961 7595.514 5097.847 298.961 5795.514 5997.847 298.961 5795.514 5997.847 298.961 5895.514 5197.847 298.961 5895.514 5197.847 298.961 6695.514 7097.847 298.961 6695.514 7097.847 298.961 4795.514 5097.847 298.961 4795.514 5097.847 298.961 4695.514 5997.847 298.961 4695.514 5997.847 298.961 3895.514 4197.847 298.961 3895.514 4197.847 298.961 6795.514 2097.847 298.961 6795.514 2097.847 298.961 8695.514 5097.847 298.961 8695.514 5097.847 298.961 8795.514 4097.847 298.961 8795.514 4097.847 298.961 10795.51 5097.847 298.961 10795.51 5097.847 298.961 10895.51 3997.847 298.961 10895.51 3997.847 298.961 8795.514 2097.847 298.961 8795.514 2097.847 298.961 10995.51 1997.847 298.961 10995.51 1997.847 298.961 6795.514 1097.847 298.961 6795.514 1097.847 298.961 11895.51 3097.847 298.961 11895.51 3097.847 298.961 9795.514 3197.847 298.961 9795.514 3197.847 298.961 11895.51 7097.847 298.961 11895.51 7097.847 298.961 10895.51 6097.847 298.961 10895.51 6097.847 298.961 10795.51 7097.847 298.961 10795.51 7097.847 298.961 9795.514 7197.847 298.961 9795.514 7197.847 298.961 10795.51 10197.85 298.961 10795.51 10197.85 298.961 9795.514 8197.847 298.961 9795.514 8197.847 298.961 6695.514 9197.847 298.961 6695.514 9197.847 298.961 5695.514 8197.847 298.961 5695.514 8197.847 298.961 5595.514 10297.85 298.961 5595.514 10297.85 298.961 1195.514 10397.85 298.961 1195.514 10397.85 298.961 4695.514 12297.85 298.961 4695.514 12297.85 298.961 3695.514 11397.85 298.961 3695.514 11397.85 298.961 1195.514 11497.85 298.961 1195.514 11497.85 298.961 3595.514 12397.85 298.961 3595.514 12397.85 298.961 4795.514 10397.85 298.961 4795.514 10397.85 298.961 5695.514 9297.847 298.961 5695.514 9297.847 298.961 6795.514 8297.847 298.961 6795.514 8297.847 298.961 9695.514 10297.85 298.961 9695.514 10297.85 298.961 10895.51 7197.847 298.961 10895.51 7197.847 298.961 11995.51</float_array>
          <technique_common>
            <accessor source="#Labirinth_14x12m-mesh-positions-array" count="380" stride="3">
              <param name="X" type="float"/>
              <param name="Y" type="float"/>
              <param name="Z" type="float"/>
            </accessor>
          </technique_common>
        </source>
        <source id="Labirinth_14x12m-mesh-normals">
          <float_array id="Labirinth_14x12m-mesh-normals-array" count="2268">1 0 0 1 0 0 0 0 -1 0 0 -1 -1 0 0 -1 0 0 0 0 1 0 0 1 1 0 0 1 0 0 0 0 1 0 0 1 1 0 0 1 0 0 0 0 -1 0 0 -1 0 0 1 0 0 1 0 1 0 0 1 0 0 1 0 0 1 0 0 1 0 0 1 0 0 1 0 0 1 0 0 1 0 0 1 0 0 1 0 0 1 0 0 1 0 0 1 0 0 1 0 0 1 0 0 1 0 0 1 0 0 1 0 0 1 0 0 1 0 0 1 0 0 1 0 0 1 0 0 1 0 0 1 0 0 1 0 0 1 0 0 1 0 0 1 0 0 1 0 0 1 0 0 1 0 0 1 0 0 1 0 0 1 0 0 1 0 0 1 0 0 1 0 0 1 0 0 1 0 0 1 0 0 1 0 0 1 0 0 1 0 0 1 0 0 1 0 0 1 0 0 1 0 0 1 0 0 1 0 0 1 0 0 1 0 0 1 0 0 1 0 0 1 0 0 1 0 0 1 0 0 1 0 0 1 0 0 1 0 0 1 0 0 1 0 0 1 0 0 1 0 0 1 0 0 1 0 0 1 0 0 1 0 0 1 0 0 1 0 0 1 0 0 1 0 0 1 0 0 1 0 0 1 0 0 1 0 0 1 0 0 1 0 0 1 0 0 1 0 0 1 0 0 1 0 0 1 0 0 1 0 0 1 0 0 1 0 0 1 0 0 1 0 0 1 0 0 1 0 0 1 0 0 1 0 0 1 0 0 1 0 0 1 0 0 1 0 0 1 0 0 1 0 0 1 0 0 1 0 0 1 0 0 1 0 0 1 0 0 1 0 0 1 0 0 1 0 0 1 0 0 1 0 0 1 0 0 1 0 0 1 0 0 1 0 0 1 0 0 1 0 0 1 0 0 1 0 0 1 0 0 1 0 0 1 0 0 1 0 0 1 0 0 1 0 0 1 0 0 1 0 0 1 0 0 1 0 0 1 0 0 1 0 0 1 0 0 1 0 0 1 0 0 1 0 0 1 0 0 1 0 0 1 0 0 1 0 0 1 0 0 1 0 0 1 0 0 1 0 0 1 0 0 1 0 0 1 0 0 1 0 0 1 0 0 1 0 0 1 0 0 1 0 0 1 0 0 1 0 0 1 0 0 1 0 0 1 0 0 1 0 0 1 0 0 1 0 0 1 0 0 1 0 0 1 0 0 1 0 0 1 0 0 1 0 0 1 0 0 1 0 0 1 0 0 1 0 0 1 0 0 1 0 0 1 0 0 1 0 0 1 0 0 1 0 0 1 0 0 1 0 0 1 0 0 1 0 0 1 0 0 1 0 0 1 0 0 1 0 0 1 0 0 1 0 0 1 0 0 0 1 0 0 1 1 0 0 1 0 0 0 0 -1 0 0 -1 -1 0 0 -1 0 0 0 -1 0 0 -1 0 -1 0 0 -1 0 0 0 0 -1 0 0 -1 -1 0 0 -1 0 0 0 0 1 0 0 1 -1 0 0 -1 0 0 0 0 -1 0 0 -1 -1 0 0 -1 0 0 0 0 -1 0 0 -1 -1 0 0 -1 0 0 0 0 -1 0 0 -1 1 0 0 1 0 0 0 0 -1 0 0 -1 1 0 0 1 0 0 0 0 1 0 0 1 1 0 0 1 0 0 0 0 1 0 0 1 1 0 0 1 0 0 0 0 -1 0 0 -1 -1 0 0 -1 0 0 0 0 -1 0 0 -1 1 0 0 1 0 0 0 0 -1 0 0 -1 1 0 0 1 0 0 0 0 1 0 0 1 1 0 0 1 0 0 0 0 -1 0 0 -1 1 0 0 1 0 0 0 0 1 0 0 1 1 0 0 1 0 0 0 0 -1 0 0 -1 -1 0 0 -1 0 0 0 0 1 0 0 1 -1 0 0 -1 0 0 0 0 -1 0 0 -1 -1 0 0 -1 0 0 0 0 1 0 0 1 -1 0 0 -1 0 0 0 0 -1 0 0 -1 -1 0 0 -1 0 0 0 0 1 0 0 1 -1 0 0 -1 0 0 0 0 -1 0 0 -1 -1 0 0 -1 0 0 0 0 1 0 0 1 1 0 0 1 0 0 0 0 1 0 0 1 -1 0 0 -1 0 0 0 0 1 0 0 1 -1 0 0 -1 0 0 0 0 -1 0 0 -1 -1 0 0 -1 0 0 0 0 1 0 0 1 1 0 0 1 0 0 0 0 -1 0 0 -1 1 0 0 1 0 0 0 0 1 0 0 1 -1 0 0 -1 0 0 0 0 1 0 0 1 -1 0 0 -1 0 0 0 0 -1 0 0 -1 -1 0 0 -1 0 0 0 0 -1 0 0 -1 1 0 0 1 0 0 -1 0 0 -1 0 0 0 0 -1 0 0 -1 1 0 0 1 0 0 0 0 1 0 0 1 1 0 0 1 0 0 0 0 -1 0 0 -1 1 0 0 1 0 0 0 0 1 0 0 1 1 0 0 1 0 0 0 0 1 0 0 1 -1 0 0 -1 0 0 0 0 1 0 0 1 1 0 0 1 0 0 0 0 -1 0 0 -1 -1 0 0 -1 0 0 0 0 1 0 0 1 1 0 0 1 0 0 0 0 1 0 0 1 -1 0 0 -1 0 0 0 0 -1 0 0 -1 -1 0 0 -1 0 0 0 0 -1 0 0 -1 1 0 0 1 0 0 0 0 -1 0 0 -1 1 0 0 1 0 0 0 0 1 0 0 1 1 0 0 1 0 0 0 0 1 0 0 1 1 0 0 1 0 0 0 0 1 0 0 1 -1 0 0 -1 0 0 0 0 -1 0 0 -1 -1 0 0 -1 0 0 0 0 -1 0 0 -1 1 0 0 1 0 0 0 0 -1 0 0 -1 -1 0 0 -1 0 0 0 0 1 0 0 1 1 0 0 1 0 0 0 0 1 0 0 1 -1 0 0 -1 0 0 0 0 -1 0 0 -1 -1 0 0 -1 0 0 0 0 -1 0 0 -1 1 0 0 1 0 0 0 0 1 0 0 1 1 0 0 1 0 0 0 0 -1 0 0 -1 -1 0 0 -1 0 0 0 0 1 0 0 1 -1 0 0 -1 0 0 0 0 -1 0 0 -1 -1 0 0 -1 0 0 0 0 1 0 0 1 1 0 0 1 0 0 0 0 1 0 0 1 1 0 0 1 0 0 0 0 -1 0 0 -1 1 0 0 1 0 0 0 0 1 0 0 1 1 0 0 1 0 0 0 0 -1 0 0 -1 1 0 0 1 0 0 0 0 1 0 0 1 -1 0 0 -1 0 0 0 0 1 0 0 1 1 0 0 1 0 0 0 0 1 0 0 1 -1 0 0 -1 0 0 0 0 1 0 0 1 1 0 0 1 0 0 0 0 -1 0 0 -1 -1 0 0 -1 0 0 0 0 -1 0 0 -1 1 0 0 1 0 0 0 0 -1 0 0 -1 -1 0 0 -1 0 0 0 0 1 0 0 1 -1 0 0 -1 0 0 0 0 -1 0 0 -1 -1 0 0 -1 0 0 0 0 -1 0 0 -1 1 0 0 1 0 0 0 0 -1 0 0 -1 -1 0 0 -1 0 0 0 0 1 0 0 1 -1 0 0 -1 0 0 0 0 -1 0 0 -1 -1 0 0 -1 0 0 0 0 1 0 0 1 -1 0 0 -1 0 0 0 0 -1 0 0 -1 -1 0 0 -1 0 0 0 0 -1 0 0 -1 1 0 0 1 0 0 0 0 -1 0 0 -1 -1 0 0 -1 0 0 0 0 1 0 0 1 -1 0 0 -1 0 0 0 0 -1 0 0 -1 1 0 0 1 0 0 0 0 -1 0 0 -1 1 0 0 1 0 0 0 0 1 0 0 1 1 0 0 1 0 0 0 0 1 0 0 1 1 0 0 1 0 0 0 0 1 0 0 1 1 0 0 1 0 0 0 0 -1 0 0 -1 1 0 0 1 0 0 0 0 1 0 0 1 1 0 0 1 0 0 0 0 1 0 0 1 0 1 0 0 1 0 0 1 0 0 1 0 0 1 0 0 1 0 0 1 0 0 1 0 0 1 0 0 1 0 0 1 0 0 1 0 0 1 0 0 1 0 0 1 0 0 1 0 0 1 0 0 1 0 0 1 0 0 1 0 0 1 0 0 1 0 0 1 0 0 1 0 0 1 0 0 1 0 0 1 0 0 1 0 0 1 0 0 1 0 0 1 0 0 1 0 0 1 0 0 1 0 0 1 0 0 1 0 0 1 0 0 1 0 0 1 0 0 1 0 0 1 0 0 1 0 0 1 0 0 1 0 0 1 0 0 1 0 0 1 0 0 1 0 0 1 0 0 1 0 0 1 0 0 1 0 0 1 0 0 1 0 0 1 0 0 1 0 0 1 0 0 1 0 0 1 0 0 1 0 0 1 0 0 1 0 0 1 0 0 1 0 0 1 0 0 1 0 0 1 0 0 1 0 0 1 0 0 1 0 0 1 0 0 1 0 0 1 0 0 1 0 0 1 0 0 1 0 0 1 0 0 1 0 0 1 0 0 1 0 0 1 0 0 1 0 0 1 0 0 1 0 0 1 0 0 1 0 0 1 0 0 1 0 0 1 0 0 1 0 0 1 0 0 1 0 0 1 0 0 1 0 0 1 0 0 1 0 0 1 0 0 1 0 0 1 0 0 1 0 0 1 0 0 1 0 0 1 0 0 1 0 0 1 0 0 1 0 0 1 0 0 1 0 0 1 0 0 1 0 0 1 0 0 1 0 0 1 0 0 1 0 0 1 0 0 1 0 0 1 0 0 1 0 0 1 0 0 1 0 0 1 0 0 1 0 0 1 0 0 1 0 0 1 0 0 1 0 0 1 0 0 1 0 0 1 0 0 1 0 0 1 0 0 1 0 0 1 0 0 1 0 0 1 0 0 1 0 0 1 0 0 1 0 0 1 0 0 1 0 0 1 0 0 1 0 0 1 0 0 1 0 0 1 0 0 1 0 0 1 0 0 1 0 0 1 0 0 1 0 0 1 0 0 1 0 0 1 0 0 1 0 0 1 0 0 1 0 0 1 0 0 1 0 0 1 0 0 1 0 0 1 0 0 1 0 0 1 0 0 1 0 0 1 0 0 1 0 0 1 0 0 1 0 0 1 0 0 1 0 0 1 0 0 1 0 0 1 0 0 1 0 0 1 0 0 1 0 0 1 0 0 1 0 0 1 0 0 1 0 0 1 0 0 1 0 0 1 0 0 1 0 0 1 0 0 1 0 0 1 0 0 1 0 0 1 0 0 1 0</float_array>
          <technique_common>
            <accessor source="#Labirinth_14x12m-mesh-normals-array" count="756" stride="3">
              <param name="X" type="float"/>
              <param name="Y" type="float"/>
              <param name="Z" type="float"/>
            </accessor>
          </technique_common>
        </source>
        <vertices id="Labirinth_14x12m-mesh-vertices">
          <input semantic="POSITION" source="#Labirinth_14x12m-mesh-positions"/>
        </vertices>
        <triangles material="Material_001-material" count="187">
          <input semantic="VERTEX" source="#Labirinth_14x12m-mesh-vertices" offset="0"/>
          <input semantic="NORMAL" source="#Labirinth_14x12m-mesh-normals" offset="1"/>
          <p>10 18 22 18 8 18 8 19 22 19 23 19 8 20 23 20 6 20 6 21 23 21 24 21 6 22 24 22 4 22 4 23 24 23 20 23 4 24 20 24 0 24 0 25 20 25 1 25 22 26 25 26 23 26 23 27 25 27 26 27 26 28 25 28 27 28 27 29 25 29 28 29 27 30 28 30 29 30 29 31 28 31 30 31 29 32 30 32 31 32 32 33 33 33 31 33 31 34 33 34 34 34 31 35 34 35 29 35 33 36 32 36 35 36 35 37 32 37 36 37 35 38 36 38 37 38 38 39 39 39 37 39 37 40 39 40 40 40 37 41 40 41 41 41 41 42 40 42 42 42 42 43 40 43 43 43 42 44 43 44 44 44 45 45 46 45 38 45 38 46 46 46 39 46 41 47 35 47 37 47 35 48 47 48 33 48 33 49 48 49 34 49 34 50 48 50 49 50 49 51 48 51 50 51 49 52 50 52 51 52 51 53 50 53 52 53 51 54 52 54 53 54 53 55 52 55 54 55 53 56 54 56 55 56 55 57 54 57 56 57 56 58 54 58 57 58 56 59 57 59 58 59 58 60 57 60 59 60 48 61 60 61 50 61 61 62 62 62 50 62 50 63 62 63 63 63 50 64 63 64 52 64 62 65 61 65 64 65 64 66 61 66 65 66 64 67 65 67 66 67 66 68 65 68 67 68 66 69 67 69 68 69 65 70 69 70 67 70 67 71 69 71 70 71 70 72 69 72 71 72 70 73 71 73 72 73 71 74 69 74 73 74 73 75 69 75 74 75 73 76 74 76 75 76 76 77 77 77 75 77 75 78 77 78 78 78 75 79 78 79 73 79 79 80 80 80 76 80 76 81 80 81 81 81 76 82 81 82 77 82 77 83 81 83 82 83 82 84 81 84 83 84 82 85 83 85 84 85 84 86 83 86 85 86 85 87 83 87 86 87 85 88 86 88 87 88 87 89 86 89 88 89 87 90 88 90 89 90 89 91 88 91 90 91 89 92 90 92 91 92 92 93 93 93 79 93 79 94 93 94 94 94 79 95 94 95 80 95 92 96 95 96 93 96 93 97 95 97 96 97 96 98 95 98 97 98 96 99 97 99 98 99 97 100 95 100 99 100 99 101 95 101 100 101 99 102 100 102 101 102 101 103 100 103 102 103 102 104 100 104 103 104 104 105 105 105 98 105 98 106 105 106 106 106 98 107 106 107 96 107 105 108 104 108 107 108 107 109 104 109 108 109 107 110 108 110 109 110 110 111 111 111 109 111 109 112 111 112 112 112 109 113 112 113 107 113 113 114 114 114 110 114 110 115 114 115 115 115 110 116 115 116 111 116 116 117 117 117 113 117 113 118 117 118 114 118 111 119 118 119 112 119 112 120 118 120 119 120 119 121 118 121 120 121 121 122 122 122 91 122 91 123 122 123 123 123 91 124 123 124 89 124 124 125 125 125 121 125 121 126 125 126 122 126 84 127 126 127 82 127 72 128 127 128 70 128 70 129 127 129 128 129 68 130 129 130 66 130 62 131 130 131 63 131 63 132 130 132 131 132 131 133 130 133 132 133 131 134 132 134 133 134 133 135 132 135 134 135 134 136 132 136 135 136 134 137 135 137 136 137 136 138 137 138 134 138 133 139 138 139 131 139 131 140 138 140 139 140 139 141 138 141 140 141 139 142 140 142 141 142 140 143 138 143 142 143 142 144 138 144 143 144 142 145 143 145 144 145 142 146 144 146 145 146 145 147 144 147 146 147 145 148 146 148 147 148 147 149 146 149 148 149 147 150 148 150 149 150 150 151 151 151 146 151 146 152 151 152 152 152 146 153 152 153 148 153 148 154 152 154 153 154 150 155 154 155 151 155 151 156 154 156 155 156 155 157 154 157 156 157 156 158 154 158 157 158 156 159 157 159 158 159 159 160 160 160 158 160 158 161 160 161 161 161 158 162 161 162 156 162 159 163 162 163 160 163 160 164 162 164 163 164 163 165 162 165 164 165 163 166 164 166 165 166 165 167 164 167 166 167 165 168 166 168 167 168 167 169 166 169 168 169 168 170 166 170 169 170 168 171 169 171 170 171 168 172 170 172 18 172 18 173 170 173 171 173 18 174 171 174 16 174 16 175 171 175 12 175 12 176 171 176 13 176 172 177 173 177 149 177 149 178 173 178 174 178 149 179 174 179 175 179 175 180 174 180 176 180 176 181 174 181 177 181 176 182 177 182 178 182 178 183 177 183 179 183 178 184 179 184 180 184 180 185 179 185 181 185 180 186 181 186 182 186 172 187 183 187 173 187 173 188 183 188 184 188 184 189 183 189 185 189 185 190 183 190 186 190 174 191 187 191 177 191 178 192 180 192 188 192 188 193 180 193 189 193 188 194 189 194 190 194 190 195 189 195 191 195 190 196 191 196 192 196 190 197 192 197 193 197 193 198 192 198 194 198 193 199 194 199 195 199 175 200 147 200 149 200 52 201 196 201 54 201 201 206 203 206 202 206 197 210 203 210 198 210 198 211 203 211 201 211</p>
        </triangles>
        <triangles material="Material_002-material" count="569">
          <input semantic="VERTEX" source="#Labirinth_14x12m-mesh-vertices" offset="0"/>
          <input semantic="NORMAL" source="#Labirinth_14x12m-mesh-normals" offset="1"/>
          <p>0 0 1 0 2 0 2 1 1 1 3 1 4 2 0 2 5 2 5 3 0 3 2 3 6 4 4 4 7 4 7 5 4 5 5 5 8 6 6 6 9 6 9 7 6 7 7 7 10 8 8 8 11 8 11 9 8 9 9 9 12 10 13 10 14 10 14 11 13 11 15 11 16 12 12 12 17 12 17 13 12 13 14 13 18 14 16 14 19 14 19 15 16 15 17 15 1 16 20 16 3 16 3 17 20 17 21 17 197 202 198 202 199 202 199 203 198 203 200 203 198 204 201 204 200 204 200 205 201 205 202 205 202 207 203 207 204 207 203 208 197 208 204 208 204 209 197 209 199 209 168 212 18 212 205 212 205 213 18 213 19 213 167 214 168 214 206 214 206 215 168 215 205 215 165 216 167 216 207 216 207 217 167 217 206 217 163 218 165 218 208 218 208 219 165 219 207 219 160 220 163 220 209 220 209 221 163 221 208 221 161 222 160 222 210 222 210 223 160 223 209 223 156 224 161 224 211 224 211 225 161 225 210 225 155 226 156 226 212 226 212 227 156 227 211 227 151 228 155 228 213 228 213 229 155 229 212 229 152 230 151 230 214 230 214 231 151 231 213 231 153 232 152 232 215 232 215 233 152 233 214 233 148 234 153 234 216 234 216 235 153 235 215 235 149 236 148 236 217 236 217 237 148 237 216 237 172 238 149 238 218 238 218 239 149 239 217 239 183 240 172 240 219 240 219 241 172 241 218 241 186 242 183 242 220 242 220 243 183 243 219 243 185 244 186 244 221 244 221 245 186 245 220 245 184 246 185 246 222 246 222 247 185 247 221 247 173 248 184 248 223 248 223 249 184 249 222 249 174 250 173 250 224 250 224 251 173 251 223 251 187 252 174 252 225 252 225 253 174 253 224 253 177 254 187 254 226 254 226 255 187 255 225 255 179 256 177 256 227 256 227 257 177 257 226 257 181 258 179 258 228 258 228 259 179 259 227 259 182 260 181 260 229 260 229 261 181 261 228 261 180 262 182 262 230 262 230 263 182 263 229 263 189 264 180 264 231 264 231 265 180 265 230 265 191 266 189 266 232 266 232 267 189 267 231 267 192 268 191 268 233 268 233 269 191 269 232 269 194 270 192 270 234 270 234 271 192 271 233 271 195 272 194 272 235 272 235 273 194 273 234 273 193 274 195 274 236 274 236 275 195 275 235 275 190 276 193 276 237 276 237 277 193 277 236 277 188 278 190 278 238 278 238 279 190 279 237 279 178 280 188 280 239 280 239 281 188 281 238 281 176 282 178 282 240 282 240 283 178 283 239 283 175 284 176 284 241 284 241 285 176 285 240 285 147 286 175 286 242 286 242 287 175 287 241 287 145 288 147 288 243 288 243 289 147 289 242 289 142 290 145 290 244 290 244 291 145 291 243 291 140 292 142 292 245 292 245 293 142 293 244 293 141 294 140 294 246 294 246 295 140 295 245 295 139 296 141 296 247 296 247 297 141 297 246 297 131 298 139 298 248 298 248 299 139 299 247 299 63 300 131 300 249 300 249 301 131 301 248 301 52 302 63 302 250 302 250 303 63 303 249 303 196 304 52 304 251 304 251 305 52 305 250 305 54 306 196 306 252 306 252 307 196 307 251 307 57 308 54 308 253 308 253 309 54 309 252 309 59 310 57 310 254 310 254 311 57 311 253 311 58 312 59 312 255 312 255 313 59 313 254 313 56 314 58 314 256 314 256 315 58 315 255 315 55 316 56 316 257 316 257 317 56 317 256 317 53 318 55 318 258 318 258 319 55 319 257 319 51 320 53 320 259 320 259 321 53 321 258 321 49 322 51 322 260 322 260 323 51 323 259 323 34 324 49 324 261 324 261 325 49 325 260 325 29 326 34 326 262 326 262 327 34 327 261 327 27 328 29 328 263 328 263 329 29 329 262 329 26 330 27 330 264 330 264 331 27 331 263 331 23 332 26 332 265 332 265 333 26 333 264 333 24 334 23 334 266 334 266 335 23 335 265 335 20 336 24 336 21 336 21 337 24 337 266 337 13 338 171 338 15 338 15 339 171 339 267 339 11 340 268 340 10 340 10 341 268 341 22 341 25 342 22 342 269 342 269 343 22 343 268 343 28 344 25 344 270 344 270 345 25 345 269 345 30 346 28 346 271 346 271 347 28 347 270 347 31 348 30 348 272 348 272 349 30 349 271 349 32 350 31 350 273 350 273 351 31 351 272 351 36 352 32 352 274 352 274 353 32 353 273 353 37 354 36 354 275 354 275 355 36 355 274 355 38 356 37 356 276 356 276 357 37 357 275 357 45 358 38 358 277 358 277 359 38 359 276 359 46 360 45 360 278 360 278 361 45 361 277 361 39 362 46 362 279 362 279 363 46 363 278 363 40 364 39 364 280 364 280 365 39 365 279 365 43 366 40 366 281 366 281 367 40 367 280 367 44 368 43 368 282 368 282 369 43 369 281 369 42 370 44 370 283 370 283 371 44 371 282 371 41 372 42 372 284 372 284 373 42 373 283 373 35 374 41 374 285 374 285 375 41 375 284 375 47 376 35 376 286 376 286 377 35 377 285 377 33 378 47 378 287 378 287 379 47 379 286 379 48 380 33 380 288 380 288 381 33 381 287 381 60 382 48 382 289 382 289 383 48 383 288 383 50 384 60 384 290 384 290 385 60 385 289 385 61 386 50 386 291 386 291 387 50 387 290 387 65 388 61 388 292 388 292 389 61 389 291 389 69 390 65 390 293 390 293 391 65 391 292 391 74 392 69 392 294 392 294 393 69 393 293 393 75 394 74 394 295 394 295 395 74 395 294 395 76 396 75 396 296 396 296 397 75 397 295 397 79 398 76 398 297 398 297 399 76 399 296 399 92 400 79 400 298 400 298 401 79 401 297 401 95 402 92 402 299 402 299 403 92 403 298 403 100 404 95 404 300 404 300 405 95 405 299 405 103 406 100 406 301 406 301 407 100 407 300 407 102 408 103 408 302 408 302 409 103 409 301 409 101 410 102 410 303 410 303 411 102 411 302 411 99 412 101 412 304 412 304 413 101 413 303 413 97 414 99 414 305 414 305 415 99 415 304 415 98 416 97 416 306 416 306 417 97 417 305 417 104 418 98 418 307 418 307 419 98 419 306 419 108 420 104 420 308 420 308 421 104 421 307 421 109 422 108 422 309 422 309 423 108 423 308 423 110 424 109 424 310 424 310 425 109 425 309 425 113 426 110 426 311 426 311 427 110 427 310 427 116 428 113 428 312 428 312 429 113 429 311 429 117 430 116 430 313 430 313 431 116 431 312 431 114 432 117 432 314 432 314 433 117 433 313 433 115 434 114 434 315 434 315 435 114 435 314 435 111 436 115 436 316 436 316 437 115 437 315 437 118 438 111 438 317 438 317 439 111 439 316 439 120 440 118 440 318 440 318 441 118 441 317 441 119 442 120 442 319 442 319 443 120 443 318 443 112 444 119 444 320 444 320 445 119 445 319 445 107 446 112 446 321 446 321 447 112 447 320 447 105 448 107 448 322 448 322 449 107 449 321 449 106 450 105 450 323 450 323 451 105 451 322 451 96 452 106 452 324 452 324 453 106 453 323 453 93 454 96 454 325 454 325 455 96 455 324 455 94 456 93 456 326 456 326 457 93 457 325 457 80 458 94 458 327 458 327 459 94 459 326 459 81 460 80 460 328 460 328 461 80 461 327 461 83 462 81 462 329 462 329 463 81 463 328 463 86 464 83 464 330 464 330 465 83 465 329 465 88 466 86 466 331 466 331 467 86 467 330 467 90 468 88 468 332 468 332 469 88 469 331 469 91 470 90 470 333 470 333 471 90 471 332 471 121 472 91 472 334 472 334 473 91 473 333 473 124 474 121 474 335 474 335 475 121 475 334 475 125 476 124 476 336 476 336 477 124 477 335 477 122 478 125 478 337 478 337 479 125 479 336 479 123 480 122 480 338 480 338 481 122 481 337 481 89 482 123 482 339 482 339 483 123 483 338 483 87 484 89 484 340 484 340 485 89 485 339 485 85 486 87 486 341 486 341 487 87 487 340 487 84 488 85 488 342 488 342 489 85 489 341 489 126 490 84 490 343 490 343 491 84 491 342 491 82 492 126 492 344 492 344 493 126 493 343 493 77 494 82 494 345 494 345 495 82 495 344 495 78 496 77 496 346 496 346 497 77 497 345 497 73 498 78 498 347 498 347 499 78 499 346 499 71 500 73 500 348 500 348 501 73 501 347 501 72 502 71 502 349 502 349 503 71 503 348 503 127 504 72 504 350 504 350 505 72 505 349 505 128 506 127 506 351 506 351 507 127 507 350 507 70 508 128 508 352 508 352 509 128 509 351 509 67 510 70 510 353 510 353 511 70 511 352 511 68 512 67 512 354 512 354 513 67 513 353 513 129 514 68 514 355 514 355 515 68 515 354 515 66 516 129 516 356 516 356 517 129 517 355 517 64 518 66 518 357 518 357 519 66 519 356 519 62 520 64 520 358 520 358 521 64 521 357 521 130 522 62 522 359 522 359 523 62 523 358 523 132 524 130 524 360 524 360 525 130 525 359 525 135 526 132 526 361 526 361 527 132 527 360 527 136 528 135 528 362 528 362 529 135 529 361 529 137 530 136 530 363 530 363 531 136 531 362 531 134 532 137 532 364 532 364 533 137 533 363 533 133 534 134 534 365 534 365 535 134 535 364 535 138 536 133 536 366 536 366 537 133 537 365 537 143 538 138 538 367 538 367 539 138 539 366 539 144 540 143 540 368 540 368 541 143 541 367 541 146 542 144 542 369 542 369 543 144 543 368 543 150 544 146 544 370 544 370 545 146 545 369 545 154 546 150 546 371 546 371 547 150 547 370 547 157 548 154 548 372 548 372 549 154 549 371 549 158 550 157 550 373 550 373 551 157 551 372 551 159 552 158 552 374 552 374 553 158 553 373 553 162 554 159 554 375 554 375 555 159 555 374 555 164 556 162 556 376 556 376 557 162 557 375 557 166 558 164 558 377 558 377 559 164 559 376 559 169 560 166 560 378 560 378 561 166 561 377 561 170 562 169 562 379 562 379 563 169 563 378 563 171 564 170 564 267 564 267 565 170 565 379 565 204 566 9 566 202 566 202 567 9 567 7 567 202 568 7 568 5 568 199 569 14 569 204 569 204 570 14 570 15 570 204 571 15 571 9 571 9 572 15 572 11 572 11 573 15 573 270 573 11 574 270 574 268 574 268 575 270 575 269 575 200 576 19 576 199 576 199 577 19 577 17 577 199 578 17 578 14 578 202 579 5 579 200 579 200 580 5 580 2 580 200 581 2 581 19 581 19 582 2 582 3 582 19 583 3 583 205 583 205 584 3 584 206 584 206 585 3 585 233 585 206 586 233 586 232 586 379 587 341 587 267 587 267 588 341 588 338 588 267 589 338 589 337 589 341 590 379 590 342 590 342 591 379 591 378 591 342 592 378 592 343 592 343 593 378 593 349 593 343 594 349 594 346 594 346 595 349 595 348 595 346 596 348 596 347 596 349 597 378 597 350 597 350 598 378 598 377 598 350 599 377 599 376 599 350 600 376 600 351 600 351 601 376 601 375 601 351 602 375 602 352 602 352 603 375 603 374 603 352 604 374 604 353 604 353 605 374 605 354 605 354 606 374 606 373 606 354 607 373 607 372 607 371 608 358 608 372 608 372 609 358 609 357 609 372 610 357 610 355 610 355 611 357 611 356 611 371 612 370 612 358 612 358 613 370 613 361 613 358 614 361 614 359 614 359 615 361 615 360 615 361 616 370 616 362 616 362 617 370 617 369 617 362 618 369 618 368 618 362 619 368 619 363 619 363 620 368 620 367 620 363 621 367 621 364 621 364 622 367 622 365 622 365 623 367 623 366 623 355 624 354 624 372 624 345 625 344 625 346 625 346 626 344 626 343 626 341 627 340 627 338 627 338 628 340 628 339 628 337 629 336 629 267 629 267 630 336 630 279 630 267 631 279 631 15 631 15 632 279 632 278 632 15 633 278 633 271 633 271 634 278 634 277 634 271 635 277 635 272 635 272 636 277 636 274 636 272 637 274 637 273 637 336 638 335 638 279 638 279 639 335 639 322 639 279 640 322 640 280 640 280 641 322 641 321 641 280 642 321 642 281 642 281 643 321 643 320 643 281 644 320 644 286 644 286 645 320 645 287 645 287 646 320 646 319 646 287 647 319 647 288 647 288 648 319 648 289 648 289 649 319 649 318 649 289 650 318 650 316 650 316 651 318 651 317 651 334 652 332 652 335 652 335 653 332 653 323 653 335 654 323 654 322 654 334 655 333 655 332 655 332 656 331 656 323 656 323 657 331 657 324 657 324 658 331 658 326 658 324 659 326 659 325 659 326 660 331 660 327 660 327 661 331 661 330 661 327 662 330 662 329 662 329 663 328 663 327 663 316 664 315 664 289 664 289 665 315 665 292 665 289 666 292 666 290 666 290 667 292 667 291 667 315 668 314 668 292 668 292 669 314 669 303 669 292 670 303 670 293 670 293 671 303 671 302 671 293 672 302 672 294 672 294 673 302 673 301 673 294 674 301 674 299 674 299 675 301 675 300 675 303 676 314 676 304 676 304 677 314 677 313 677 304 678 313 678 308 678 308 679 313 679 309 679 309 680 313 680 312 680 309 681 312 681 310 681 310 682 312 682 311 682 307 683 306 683 308 683 308 684 306 684 305 684 308 685 305 685 304 685 299 686 298 686 294 686 294 687 298 687 295 687 295 688 298 688 296 688 296 689 298 689 297 689 281 690 286 690 282 690 282 691 286 691 285 691 282 692 285 692 284 692 284 693 283 693 282 693 277 694 276 694 274 694 274 695 276 695 275 695 271 696 270 696 15 696 3 697 21 697 233 697 233 698 21 698 234 698 234 699 21 699 235 699 235 700 21 700 238 700 235 701 238 701 236 701 236 702 238 702 237 702 266 703 242 703 21 703 21 704 242 704 239 704 21 705 239 705 238 705 265 706 248 706 266 706 266 707 248 707 247 707 266 708 247 708 246 708 264 709 256 709 265 709 265 710 256 710 255 710 265 711 255 711 248 711 248 712 255 712 254 712 248 713 254 713 251 713 251 714 254 714 252 714 252 715 254 715 253 715 263 716 262 716 264 716 264 717 262 717 261 717 264 718 261 718 256 718 256 719 261 719 257 719 257 720 261 720 260 720 257 721 260 721 259 721 259 722 258 722 257 722 250 723 249 723 251 723 251 724 249 724 248 724 245 725 244 725 246 725 246 726 244 726 243 726 246 727 243 727 266 727 266 728 243 728 242 728 241 729 240 729 242 729 242 730 240 730 239 730 231 731 230 731 232 731 232 732 230 732 229 732 232 733 229 733 207 733 207 734 229 734 228 734 207 735 228 735 225 735 225 736 228 736 226 736 226 737 228 737 227 737 207 738 225 738 222 738 222 739 225 739 224 739 222 740 224 740 223 740 222 741 221 741 207 741 207 742 221 742 208 742 208 743 221 743 220 743 208 744 220 744 209 744 209 745 220 745 210 745 210 746 220 746 219 746 210 747 219 747 218 747 217 748 212 748 218 748 218 749 212 749 211 749 218 750 211 750 210 750 216 751 215 751 217 751 217 752 215 752 212 752 215 753 214 753 212 753 212 754 214 754 213 754 207 755 206 755 232 755</p>
        </triangles>
      </mesh>
    </geometry>
  </library_geometries>
  <library_visual_scenes>
    <visual_scene id="Scene" name="Scene">
      <node id="Labirinth_14x12m" name="Labirinth_14x12m" type="NODE">
        <matrix sid="transform">0.001 0 0 -0.9978466 0 -4.37114e-11 -0.001 11.99551 0 0.001 -4.37114e-11 0.001039505 0 0 0 1</matrix>
        <instance_geometry url="#Labirinth_14x12m-mesh" name="Labirinth_14x12m">
          <bind_material>
            <technique_common>
              <instance_material symbol="Material_001-material" target="#Material_001-material"/>
              <instance_material symbol="Material_002-material" target="#Material_002-material"/>
            </technique_common>
          </bind_material>
        </instance_geometry>
      </node>
      <node id="Camera" name="Camera" type="NODE">
        <matrix sid="transform">0.6859207 -0.3240135 0.6515582 7.358891 0.7276763 0.3054208 -0.6141704 -6.925791 0 0.8953956 0.4452714 4.958309 0 0 0 1</matrix>
        <instance_camera url="#Camera-camera"/>
      </node>
      <node id="Light" name="Light" type="NODE">
        <matrix sid="transform">-0.2908646 -0.7711008 0.5663932 4.076245 0.9551712 -0.1998834 0.2183912 1.005454 -0.05518906 0.6045247 0.7946723 5.903862 0 0 0 1</matrix>
        <instance_light url="#Light-light"/>
      </node>
    </visual_scene>
  </library_visual_scenes>
  <scene>
    <instance_visual_scene url="#Scene"/>
  </scene>
</COLLADA>